<svg xmlns="http://www.w3.org/2000/svg"
	xmlns:xlink="http://www.w3.org/1999/xlink" viewBox="0 0 30.5 23.5">
	<path d="M30.4,11.3c0.3-0.6,0-1.4-0.6-1.6s-1.4,0-1.6,0.6L30.4,11.3z M12.1,10.2l-0.7,1.1L12.1,10.2z M0.4,11.8
	c-0.5,0.5-0.5,1.3,0,1.8c0.5,0.5,1.3,0.5,1.8,0L0.4,11.8z M29.2,10.8c-1.1-0.5-1.1-0.5-1.1-0.5c0,0,0,0,0,0c0,0,0,0,0,0c0,0,0,0,0,0
	c0,0,0,0,0,0c0,0,0,0,0,0c0,0,0,0.1-0.1,0.2c-0.1,0.2-0.2,0.4-0.5,0.6c-0.4,0.5-1.1,1.1-2.2,1.5c-2.1,0.8-6,0.8-12.6-3.4l-1.3,2.1
	c7,4.4,11.7,4.8,14.8,3.6c1.5-0.6,2.6-1.4,3.2-2.2c0.3-0.4,0.6-0.7,0.7-1c0.1-0.1,0.1-0.2,0.2-0.3c0,0,0-0.1,0.1-0.1c0,0,0,0,0,0
	c0,0,0,0,0,0c0,0,0,0,0,0c0,0,0,0,0,0C30.4,11.3,30.4,11.3,29.2,10.8z M12.7,9.2C9.7,7.2,6.5,8,4.2,9.1c-1.1,0.6-2.1,1.2-2.7,1.7
	c-0.3,0.3-0.6,0.5-0.8,0.6c-0.1,0.1-0.2,0.1-0.2,0.2c0,0,0,0-0.1,0.1c0,0,0,0,0,0c0,0,0,0,0,0c0,0,0,0,0,0c0,0,0,0,0,0
	c0,0,0,0,0.9,0.9s0.9,0.9,0.9,0.9c0,0,0,0,0,0c0,0,0,0,0,0c0,0,0,0,0,0c0,0,0,0,0,0c0,0,0,0,0,0c0,0,0.1-0.1,0.2-0.2
	C2.5,13.2,2.7,13,3,12.8c0.6-0.4,1.4-1,2.3-1.4c1.9-0.9,4.1-1.3,6.1-0.1L12.7,9.2z"/>
	<path d="M30.4,3.3c0.3-0.6,0-1.4-0.6-1.6s-1.4,0-1.6,0.6L30.4,3.3z M12.1,2.2l-0.7,1.1L12.1,2.2z M0.4,3.8c-0.5,0.5-0.5,1.3,0,1.8
	C0.8,6,1.6,6,2.1,5.6L0.4,3.8z M29.2,2.8c-1.1-0.5-1.1-0.5-1.1-0.5c0,0,0,0,0,0c0,0,0,0,0,0c0,0,0,0,0,0c0,0,0,0,0,0c0,0,0,0,0,0
	c0,0,0,0.1-0.1,0.2c-0.1,0.2-0.2,0.4-0.5,0.6c-0.4,0.5-1.1,1.1-2.2,1.5c-2.1,0.8-6,0.8-12.6-3.4l-1.3,2.1c7,4.4,11.7,4.8,14.8,3.6
	c1.5-0.6,2.6-1.4,3.2-2.2c0.3-0.4,0.6-0.7,0.7-1c0.1-0.1,0.1-0.2,0.2-0.3c0,0,0-0.1,0.1-0.1c0,0,0,0,0,0c0,0,0,0,0,0c0,0,0,0,0,0
	c0,0,0,0,0,0C30.4,3.3,30.4,3.3,29.2,2.8z M12.7,1.2C9.7-0.8,6.5,0,4.2,1.1C3.1,1.7,2.1,2.3,1.5,2.8C1.1,3.1,0.9,3.3,0.7,3.5
	C0.6,3.6,0.5,3.6,0.5,3.7c0,0,0,0-0.1,0.1c0,0,0,0,0,0c0,0,0,0,0,0c0,0,0,0,0,0c0,0,0,0,0,0c0,0,0,0,0.9,0.9s0.9,0.9,0.9,0.9
	c0,0,0,0,0,0c0,0,0,0,0,0c0,0,0,0,0,0c0,0,0,0,0,0c0,0,0,0,0,0c0,0,0.1-0.1,0.2-0.2C2.5,5.2,2.7,5,3,4.8c0.6-0.4,1.4-1,2.3-1.4
	C7.2,2.4,9.4,2,11.4,3.3L12.7,1.2z"/>
	<path d="M30.4,19.3c0.3-0.6,0-1.4-0.6-1.6s-1.4,0-1.6,0.6L30.4,19.3z M12.1,18.2l-0.7,1.1L12.1,18.2z M0.4,19.8
	c-0.5,0.5-0.5,1.3,0,1.8c0.5,0.5,1.3,0.5,1.8,0L0.4,19.8z M29.2,18.8c-1.1-0.5-1.1-0.5-1.1-0.5c0,0,0,0,0,0c0,0,0,0,0,0c0,0,0,0,0,0
	c0,0,0,0,0,0c0,0,0,0,0,0c0,0,0,0.1-0.1,0.2c-0.1,0.2-0.2,0.4-0.5,0.6c-0.4,0.5-1.1,1.1-2.2,1.5c-2.1,0.8-6,0.8-12.6-3.4l-1.3,2.1
	c7,4.4,11.7,4.8,14.8,3.6c1.5-0.6,2.6-1.4,3.2-2.2c0.3-0.4,0.6-0.7,0.7-1c0.1-0.1,0.1-0.2,0.2-0.3c0,0,0-0.1,0.1-0.1c0,0,0,0,0,0
	c0,0,0,0,0,0c0,0,0,0,0,0c0,0,0,0,0,0C30.4,19.3,30.4,19.3,29.2,18.8z M12.7,17.2c-3.1-2-6.3-1.2-8.5-0.1c-1.1,0.6-2.1,1.2-2.7,1.7
	c-0.3,0.3-0.6,0.5-0.8,0.6c-0.1,0.1-0.2,0.1-0.2,0.2c0,0,0,0-0.1,0.1c0,0,0,0,0,0c0,0,0,0,0,0c0,0,0,0,0,0c0,0,0,0,0,0
	c0,0,0,0,0.9,0.9s0.9,0.9,0.9,0.9c0,0,0,0,0,0c0,0,0,0,0,0c0,0,0,0,0,0c0,0,0,0,0,0c0,0,0,0,0,0c0,0,0.1-0.1,0.2-0.2
	C2.5,21.2,2.7,21,3,20.8c0.6-0.4,1.4-1,2.3-1.4c1.9-0.9,4.1-1.3,6.1-0.1L12.7,17.2z"/>
</svg>
